<svg xmlns="http://www.w3.org/2000/svg" viewBox="0 0 145.14 51.53"><defs><style>.cls-1{font-size:30px;}.cls-1,.cls-2{fill:#cdcdcd;font-family:CenturyGothic, Century Gothic;}.cls-2{font-size:12px;}.cls-3{fill:none;stroke:#d6d6d6;stroke-miterlimit:10;stroke-width:0.25px;}.cls-4{fill:#d1d1d1;}</style></defs><title>Asset 1</title><g id="Layer_2" data-name="Layer 2"><g id="Layer_1-2" data-name="Layer 1"><g id="Layer_2-2" data-name="Layer 2"><text class="cls-1" transform="translate(18.73 25.77)">AIRZURE</text><text class="cls-2" transform="translate(14.73 36.77)">AIRLINES</text><path class="cls-3" d="M51.73,40.77"/><path class="cls-4" d="M0,45.62c.5-.06,3.43-.44,8.16-.95s11.27-1.1,19-1.64c15.42-1.14,35.52-1.88,55.19-3.68,9.83-.9,19.59-2.14,28.55-3.69s17-3.73,22.79-6.7a23.85,23.85,0,0,0,6.67-4.75,16.09,16.09,0,0,0,3.12-4.93,29.67,29.67,0,0,0,1.29-4l.4-1.62c-.3,4.34-.75,7.86-2.65,11.2-3.37,3.94-8.69,6.46-14.22,8.34a112.11,112.11,0,0,1-17.45,4.08c-12,1.93-24.25,3-36.5,3.85C49.81,42.64,25,42.87,0,45.62Z"/><path class="cls-4" d="M18.69,46.25c.8-.11,9.31-.8,21.6-1.54s28.32-1.51,44.13-3c7.9-.77,15.76-1.69,23-2.89a127.61,127.61,0,0,0,19.38-4.36A44.06,44.06,0,0,0,139,28.72a20.06,20.06,0,0,0,2.72-2.27c.58-.57.84-.9.84-.9a25.46,25.46,0,0,1-7,7.09,68.33,68.33,0,0,1-13.73,4.71c-4.75,1.14-9.57,2-14.44,2.69C97.64,41.46,87.83,42.41,78,43.1,58.32,44.49,38.54,44.85,18.69,46.25Z"/><path class="cls-4" d="M34.05,47.52c.64-.06,7.42-.49,17.23-1.06s22.65-1.31,35.36-2.6c6.35-.64,12.67-1.4,18.55-2.31s11.34-1.88,15.93-3A80.81,80.81,0,0,0,132,35.11c1.27-.52,2.25-1,2.91-1.27l1-.49a57.72,57.72,0,0,1-7.44,4.43,139.07,139.07,0,0,1-23.35,4.79C97.27,43.64,89.39,44.43,81.49,45,65.7,46.24,49.87,46.73,34.05,47.52Z"/><path class="cls-4" d="M43.8,49l13.79-.83C65.44,47.69,75.73,47,85.94,46s20.32-2.4,27.87-3.79a117.64,117.64,0,0,0,12.47-3c-2.13,1-4.3,1.91-6.49,2.76C94.52,47,69.09,47.83,43.8,49Z"/><path class="cls-4" d="M51.67,50.38c.81-.11,17.38-.89,33.79-2.47,8.2-.8,16.35-1.81,22.42-2.81,3-.45,5.58-.93,7.36-1.27s2.79-.57,2.79-.57c-1.77.66-3.55,1.29-5.34,1.89C92.33,48.44,71.93,49.49,51.67,50.38Z"/><path class="cls-4" d="M56.63,51.53c.65-.08,13.92-.77,27.09-2,6.58-.6,13.12-1.39,18-2.06,2.45-.32,4.48-.67,5.9-.87l2.23-.34-4.3,1.33C89.22,49.82,72.85,50.8,56.63,51.53Z"/></g></g></g></svg>